<?xml version="1.0" encoding="UTF-8" standalone="no"?>
<!-- Created with Inkscape (http://www.inkscape.org/) -->

<svg
   width="512"
   height="512"
   viewBox="0 0 512 512"
   version="1.1"
   id="svg1"
   xmlns="http://www.w3.org/2000/svg"
   xmlns:svg="http://www.w3.org/2000/svg">
  <defs
     id="defs1" />
  <g
     id="layer1">
    <rect
       style="display:none;fill:#1e1b4b;fill-opacity:1;stroke:#89f542;stroke-width:0.953185;stroke-dasharray:none;stroke-opacity:1"
       id="rect54"
       width="512.94006"
       height="513.08203"
       x="-0.46021187"
       y="-0.50234264" />
    <path
       id="rect2"
       style="fill:#ffffff;fill-opacity:0;stroke:#ffffff;stroke-width:14.8582;stroke-dasharray:none;stroke-opacity:1"
       d="m 184.8546,354.61151 h -41.3108 c -16.67714,0 -30.10314,-11.19608 -30.10314,-25.10331 V 120.90264 c 0,-13.90723 13.426,-25.103291 30.10314,-25.103291 v 0 h 225.77356 c 16.67713,0 30.10314,11.196061 30.10314,25.103291 V 329.5082 c 0,13.90723 -13.42601,25.10331 -30.10314,25.10331 h -35.58693" />
    <rect
       x="161.5387"
       y="61.576103"
       width="32.579025"
       height="72.128731"
       rx="9.9069214"
       ry="3.1881447"
       fill="#f5c842"
       id="rect6"
       style="fill:#ffffff;fill-opacity:1;stroke-width:0.964777" />
    <rect
       x="320.70551"
       y="61.424271"
       width="32.579025"
       height="72.128731"
       rx="9.9069214"
       ry="3.1881447"
       fill="#f5c842"
       id="rect6-2"
       style="fill:#ffffff;fill-opacity:1;stroke-width:0.964777" />
    <path
       x="184.95601"
       y="165.26642"
       width="64.473991"
       height="55.877457"
       fill="#f5c842"
       id="rect9"
       style="fill:#ffffff;fill-opacity:1;stroke-width:0.859653"
       d="M 184.95601,165.26642 H 249.43 v 55.87746 h -64.47399 z"
       ry="0"
       transform="matrix(0.72012732,0,0,0.77128907,175.66334,33.828941)" />
    <path
       x="184.95601"
       y="165.26642"
       width="64.473991"
       height="55.877457"
       fill="#f5c842"
       id="rect9-5"
       style="fill:#ffffff;fill-opacity:1;stroke-width:0.859653"
       d="M 184.95601,165.26642 H 249.43 v 55.87746 h -64.47399 z"
       ry="0"
       transform="matrix(0.72012732,0,0,0.77128907,101.93377,33.557437)" />
    <path
       x="184.95601"
       y="165.26642"
       width="64.473991"
       height="55.877457"
       fill="#f5c842"
       id="rect9-5-2"
       style="fill:#ffffff;fill-opacity:1;stroke-width:0.859653"
       d="M 184.95601,165.26642 H 249.43 v 55.87746 h -64.47399 z"
       ry="0"
       transform="matrix(0.72012732,0,0,0.77128907,101.9865,91.833539)" />
    <path
       x="184.95601"
       y="165.26642"
       width="64.473991"
       height="55.877457"
       fill="#f5c842"
       id="rect9-5-6"
       style="fill:#ffffff;fill-opacity:1;stroke-width:0.859653"
       d="M 184.95601,165.26642 H 249.43 v 55.87746 h -64.47399 z"
       ry="0"
       transform="matrix(0.72012732,0,0,0.77128907,25.488097,33.68091)" />
    <path
       style="fill:#ffffff;fill-opacity:1;stroke:#ffffff;stroke-width:10.7716;stroke-dasharray:none;stroke-opacity:1"
       d="m 172.57084,224.78417 26.94046,24.68299 v -24.75079 z"
       id="path49" />
    <g
       id="g5"
       transform="matrix(0.84200867,-0.03911857,0.04014067,0.8516209,35.119646,4.3041405)">
      <g
         id="g15">
        <g
           id="g16"
           transform="matrix(0.9971861,0.07358643,-0.07637113,0.9971861,30.87178,-16.735104)">
          <path
             id="path1393"
             style="fill:#ffffff;fill-opacity:1;stroke-width:3.82281;stroke-dasharray:none"
             d="m 384.79378,250.96845 c -0.46996,-0.004 -0.96202,0.051 -1.4703,0.17579 -4.00067,0.98168 -126.5987,121.99618 -153.08486,151.10734 -9.29525,10.21652 -23.29639,25.50039 -31.112,33.96545 -7.81555,8.46501 -15.42871,16.79844 -16.91842,18.51684 -2.70858,3.12439 -2.70925,3.12286 -6.2228,0.61912 -12.32072,-8.77974 -31.36271,-11.72681 -44.31672,-6.86106 -49.083175,18.43661 -40.725838,84.99164 11.52267,91.76203 33.4605,4.3358 62.53397,-30.04397 51.45246,-60.84527 -2.08196,-5.78676 33.46157,-43.91039 40.93863,-43.91039 7.02304,0 31.27559,-17.79454 41.45803,-30.41677 21.39786,-26.52492 107.79809,-141.22574 111.56689,-148.11135 1.63692,-2.99066 -0.52373,-5.97167 -3.81358,-6.00173 z M 248.81312,395.89049 a 13.228813,12.199217 0 0 1 13.2287,12.2007 13.228813,12.199217 0 0 1 -13.2287,12.19873 13.228813,12.199217 0 0 1 -13.22868,-12.19873 13.228813,12.199217 0 0 1 13.22868,-12.2007 z m -100.63954,65.60094 c 7.59241,0.008 15.40706,2.80436 22.15836,9.38829 17.42396,16.99207 7.73556,53.24397 -14.26349,53.37096 -1.31823,0.008 -1.59808,0.19618 -0.91895,0.61716 0.72964,0.45221 0.54326,0.71859 -0.73313,1.05269 -18.79297,4.91947 -41.36698,-13.16481 -40.78082,-32.66863 0.0317,-1.05752 0.0676,-1.65026 0.13784,-1.71478 l 0.002,-0.002 0.002,-0.002 h 0.002 l 0.002,-0.002 h 0.002 0.002 c 7.2e-4,7e-5 0.005,-1.6e-4 0.006,0 l 0.002,0.002 h 0.002 l 0.002,0.002 c 0.10576,0.0782 0.28137,1.12795 0.59929,3.3026 0.78907,5.39737 4.42339,14.35753 6.59438,16.25914 0.46192,0.40456 0.73714,0.60749 0.80906,0.57809 l 0.002,-0.002 0.002,-0.002 h 0.002 v -0.002 l 0.002,-0.002 0.002,-0.002 c 0.0551,-0.10711 -0.34653,-0.75399 -1.23656,-2.04288 -15.95254,-23.10086 4.82283,-48.15734 27.60004,-48.13093 z" />
          <ellipse
             style="fill:#ffffff;fill-opacity:0;stroke:#ffffff;stroke-width:17.6052;stroke-dasharray:none;stroke-opacity:1"
             id="path2"
             cx="147.43405"
             cy="493.64871"
             rx="40.670612"
             ry="39.290817" />
        </g>
      </g>
    </g>
    <g
       id="g14"
       transform="matrix(0.84293005,0,0,0.85255283,50.80519,-5.5931037)">
      <path
         id="path1392"
         style="fill:#ffffff;fill-opacity:1;stroke-width:3.91064"
         d="m 99.645855,254.9736 c -1.808281,0.0562 -4.589829,2.51013 -4.527794,3.9943 0.105449,2.52184 3.032857,6.24889 56.431599,71.82738 29.76013,36.54811 46.71578,57.16971 60.171,73.17941 5.35101,6.36694 5.30905,6.33477 6.60907,4.93244 6.18129,-6.66754 21.37571,-24.88586 21.35282,-25.60212 -0.057,-1.78263 -138.21029,-128.38812 -140.036695,-128.33141 z" />
      <ellipse
         style="fill:#ffffff;fill-opacity:0;stroke:#ffffff;stroke-width:17.7696;stroke-dasharray:none;stroke-opacity:1"
         id="path2-5"
         cx="344.13028"
         cy="491.4552"
         rx="41.058758"
         ry="39.650139" />
      <path
         style="fill:#ffffff;fill-opacity:1;stroke:#ffffff;stroke-width:2.78287;stroke-dasharray:none;stroke-opacity:1"
         d="m 273.34332,415.51804 41.32784,41.89298 -14.06716,19.64594 -45.05537,-42.8835 z"
         id="path3" />
    </g>
  </g>
</svg>
